<svg xmlns="http://www.w3.org/2000/svg" viewBox="0 0 222.97 55.08"><defs><style>.cls-1{fill:#009cde;}</style></defs><title>Risorsa 15</title><g id="Livello_2" data-name="Livello 2"><g id="Livello_1-2" data-name="Livello 1"><path class="cls-1" d="M29.75,11.73C25.87,7.86,22.18,4.16,21.08,0,20,4.16,16.28,7.86,12.4,11.73,6.59,17.54,0,24.12,0,34a21.08,21.08,0,1,0,42.15,0C42.15,24.12,35.56,17.54,29.75,11.73ZM10.84,35.92a14.13,14.13,0,0,0-1.65,2.62.54.54,0,0,1-.36.3H8.65c-.47,0-1-.92-1-.92h0c-.14-.22-.27-.45-.4-.69l-.09-.19C5.94,34.25,7,30.28,7,30.28h0a17.42,17.42,0,0,1,2.52-5.41,31.53,31.53,0,0,1,2.28-3l1,1,4.72,4.82a.54.54,0,0,1,0,.72l-4.93,5.47h0ZM21.32,49.73a7.29,7.29,0,0,1-5.4-12.14c1.54-1.83,3.42-3.63,5.46-6,2.42,2.58,4,4.35,5.55,6.29a3.08,3.08,0,0,1,.32.48,7.15,7.15,0,0,1,1.3,4.12A7.23,7.23,0,0,1,21.32,49.73ZM35,38.14v0a.84.84,0,0,1-.67.58h-.14a1.22,1.22,0,0,1-.68-.55h0a37.77,37.77,0,0,0-4.28-5.31l-1.93-2-6.41-6.65a54,54,0,0,1-3.84-3.94,1.3,1.3,0,0,0-.1-.15,3.84,3.84,0,0,1-.51-1c0-.06,0-.13,0-.19a3.4,3.4,0,0,1,1-3c1.24-1.24,2.49-2.49,3.67-3.79,1.3,1.44,2.69,2.82,4.06,4.19v0a57.6,57.6,0,0,1,7.55,8.58A16,16,0,0,1,35.65,34,14.55,14.55,0,0,1,35,38.14Z"/><path class="cls-1" d="M135.87,21H129V33.86c0,3.76-1.62,6.81-5.38,6.81s-5.4-3.05-5.4-6.81V21h-6.86V33.86c0,7.44,4.78,13.47,12.22,13.47s12.29-6,12.29-13.47Z"/><rect class="cls-1" x="197.96" y="13.13" width="6.85" height="33.54"/><polygon class="cls-1" points="209.87 14.36 209.87 13.16 215.2 13.16 215.2 14.36 213.25 14.36 213.25 19.67 211.82 19.67 211.82 14.36 209.87 14.36"/><polygon class="cls-1" points="217.97 13.16 219.49 17.64 219.51 17.64 220.95 13.16 222.97 13.16 222.97 19.68 221.63 19.68 221.63 15.06 221.61 15.06 220.01 19.68 218.91 19.68 217.31 15.1 217.29 15.1 217.29 19.68 215.95 19.68 215.95 13.16 217.97 13.16"/><path class="cls-1" d="M105.76,20.7c-5.91-1.37-9.63,4.5-9.79,4.82-.07.15-.08.24-.34.23s-.24-.23-.24-.23L94.66,21H88.52V46.64H95.4V32.78c0-1.14,3-6.57,9-5.17a9.36,9.36,0,0,1,4.26,2V21.78a11.32,11.32,0,0,0-2.86-1.08"/><path class="cls-1" d="M151.88,27.19A6.87,6.87,0,1,1,145,34.05a6.86,6.86,0,0,1,6.87-6.86m-6.67,27.89V45.86h0V42.41s0-.27.26-.28.27.15.33.28a8.15,8.15,0,0,0,9.75,4.69,13.56,13.56,0,1,0-17.24-13.05v21Z"/><path class="cls-1" d="M188.47,34.05a6.87,6.87,0,1,1-6.86-6.86,6.87,6.87,0,0,1,6.86,6.86m-.19,12.6h6.89V34.05A13.56,13.56,0,1,0,177.93,47.1a8.16,8.16,0,0,0,9.76-4.69c.05-.13.1-.28.32-.28s.26.28.26.28"/><path class="cls-1" d="M68.84,18.92H66.07V40.79l2.84.07c5.83,0,9.58-.53,9.58-11,0-10-3.31-10.94-9.65-10.94M67,46.6H59.14V13.11h8.4c10.17,0,17.88,1.87,17.88,16.75S77.25,46.6,67,46.6"/></g></g></svg>